<?xml version="1.0" encoding="utf-8"?>
<!-- Generator: Adobe Illustrator 21.1.0, SVG Export Plug-In . SVG Version: 6.00 Build 0)  -->
<svg version="1.1" id="Capa_1" xmlns="http://www.w3.org/2000/svg" xmlns:xlink="http://www.w3.org/1999/xlink" x="0px" y="0px"
	 width="1392px" height="387px" viewBox="0 0 1392 387" style="enable-background:new 0 0 1392 387;" xml:space="preserve">
<style type="text/css">
	.st0{fill:#E60049;}
	.st1{fill:#0072BD;}
</style>
<g>
	<path class="st0" d="M194.8,15c-3.6,1.1-1.4,2.8-0.2,3.9C242.9,64,288.3,112,335.4,158.4c15.9,15.7,15.6,23.9-0.7,39.5
		c-16.6,15.8-33.3,31.5-50.1,47.1c-2.5,2.3-4.6,5.7-9.7,4.9c-0.2-11.8,3.5-23.4,2.1-35.4c-2.1-17.3-11.3-28-27.5-33.6
		c-17.8-6.1-36.3-7.5-54.8-9.1c-17.3-1.5-34.7-2.8-51.2-8.8c-43.5-15.7-54.2-53.7-23.9-88.8c17.3-20,36.2-38.7,56.3-56
		c0.6-0.5,1.2-1.2,1.3-1.9c0.1-0.4-0.8-0.9-1.3-1.4C182.1,15,188.4,15,194.8,15z"/>
	<path class="st1" d="M171,371.4c2.8-6.2-3.5-7.5-6-10.1c-42.1-42.5-84.4-84.7-126.6-126.9c-17.8-17.8-17.7-25.7,0.7-43.2
		c16.3-15.5,32.7-30.8,50.7-47.7c0.7,11.9,0.9,21.9,2,31.8c2.7,23.1,13,34.2,36.1,39.4c19.8,4.5,40.1,4.5,60.1,7
		c16.6,2,32.9,4.8,48,12.3c29.6,14.9,37.7,41.6,21.1,70.3c-11.3,19.5-29.7,32.7-44.4,49.2c-5.3,5.9-13,9.7-15.4,18
		C188.4,371.4,179.7,371.4,171,371.4z"/>
	<path class="st1" d="M1371,148.1c-16,0.2-31.9,0.3-47.9,0.5c-9.6,0.2-10.1,7.3-10.2,14.2c-0.1,20.6-0.1,41.2-0.1,61.8
		c0,12.3,0.1,24.5-0.1,36.8c0,3.5,0.2,7.7-1.5,10.4c-9.3,14.2-23.9,9.3-36.8,8.9c-9.2-0.3-15.7-5.5-15.7-15.8
		c0-22.5,0.1-45.1,0.1-67.6c0-11.1-0.3-22.2,0.1-33.3c0.4-11-3.9-16.3-15.3-15.7c-7.9,0.5-15.8,0.2-23.8,0.1
		c-17.9-0.2-22.9-4.5-22.8-19.6c0.1-15.4,5-20.2,22.5-20c50.4,0.5,100.9-1.5,151.3,1.2C1371,122.7,1371,135.4,1371,148.1z"/>
	<path class="st1" d="M933.6,189.2c4.4-6,4.5-12.3,4.5-18.6c0-15.4,0.2-30.9,0.1-46.3c-0.1-9.1,4.4-14,13-15.6
		c5.1-0.9,10.1-1.8,15.3-2.1c16-0.9,24.3,5.9,24.4,21.9c0.5,45.5,0.4,91.1,0.5,136.6c0,8-3.4,14.3-11.7,15.5
		c-19.5,3-37.9,1.9-51.4-15.9c-16-21.2-35-39.8-53-59.3c-3.8-4.1-7.8-7.9-14.4-9c-4.4,5.3-4.3,12.1-4.4,18.6
		c-0.1,16.2-0.4,32.5,0,48.7c0.3,11.5-5,16.4-16.1,17.2c-38.5,2.7-37.6-2.5-37.2-33.1c0.4-36-0.2-72.1,0.3-108.1
		c0.2-10.4-4.1-23.2,8.9-29.6c14.8-7.2,38.2-3.8,49.1,6.8c5.1,5,9.4,10.7,14.2,15.9c14.7,16.1,29.4,32.1,44.2,48.1
		C923.6,184.7,927.3,188.5,933.6,189.2z"/>
	<path class="st1" d="M467.5,283.9c-26.1,0.2-51.3-4.3-75.2-14.7c-8.6-3.7-19.1-7.1-15.1-19.9c4.3-13.8,20.8-23.4,32.3-18.8
		c15.1,6.1,30,12.3,46.4,14.1c9.9,1.1,19.8,1.9,29.5-0.7c5.6-1.5,10.9-4.4,11-10.8c0-6.4-5-9.6-10.7-11c-16.9-4.2-33.9-8-50.7-12.4
		c-9.9-2.6-19.8-5.5-29.4-9.2c-15.4-6.1-26-16.7-27.3-34.1c-1.4-18,5.3-32.5,20.5-42.6c19.9-13.2,42.4-17.3,65.6-17
		c21.5,0.2,42.6,3.8,62.8,11.4c8.1,3,19.1,3.9,16.9,17.2c-2,11.9-13,22-24.5,22.2c-3.5,0.1-7.1-0.5-10.5-1.5
		c-15.2-4.5-30.9-6.9-46.5-9.4c-3.9-0.6-7.9-1.3-11.7,0.1c-5.5,1.9-10.6,4.8-11.2,11c-0.6,7,5.1,9.3,10.6,10.8
		c19.5,5.2,39.1,10,58.5,15.3c8,2.2,15.9,4.8,23.5,8c29.9,12.9,35.8,47.7,11.8,69.8C522.3,281.5,495.1,283.8,467.5,283.9z"/>
	<path class="st1" d="M770.2,169.4c-0.8,17.4,0.4,34.8-1.8,52.1c-3.4,27-18.6,45-43.6,54.3c-30.7,11.4-62.1,11.3-93.1,1.1
		c-29-9.5-46.1-33.4-46.8-64.7c-0.6-28.9-0.1-57.7-0.2-86.6c0-10.6,4.6-15.8,15.4-16.9c36.6-3.6,39.4-1.3,39.4,35.1
		c0,19.4-0.4,38.8,0.1,58.1c0.9,29.6,16.6,42.9,45.1,39c19.9-2.8,29.7-14.1,29.9-35.9c0.3-25.7,0-51.4,0.1-77.1
		c0.1-14.7,2.9-17.7,17.7-19.4c32.9-3.8,37.8,0.3,37.8,32.6C770.2,150.4,770.2,159.9,770.2,169.4z"/>
	<path class="st1" d="M1194.2,281.5c-13.6,2-24.8-2.8-29.4-19.5c-2.8-10.3-11.7-14.3-21.4-13.4c-16.2,1.5-32.4,1.3-48.6,0.5
		c-9.3-0.5-15.4,3-19.8,11.7c-10.7,21.3-20.2,25.5-43.1,20.6c-14.3-3.1-18-9.7-11.6-23c16.6-34.6,33.6-69,50.5-103.4
		c5.7-11.7,11.7-23.4,17.1-35.2c3.7-8,9.3-12.5,18.2-13c5.9-0.3,11.8-1,17.8-1.2c13.8-0.3,24.3,4.9,30.7,18
		c21.2,43.3,42.9,86.4,64.1,129.8c9.8,20,4.6,27.8-17.5,28.1C1199.5,281.6,1198,281.5,1194.2,281.5z M1119.3,214.5
		c4.7,0,9.5,0.4,14.2-0.1c5-0.5,8.5-3.5,6.3-8.9c-4.2-10.2-8.4-20.4-13.7-29.9c-3.6-6.5-8.8-6.1-12.5,0.7c-3,5.5-5.7,11.2-8.3,16.9
		C1096.2,213.2,1097.2,214.6,1119.3,214.5z"/>
</g>
</svg>
